<mxfile host="app.diagrams.net" modified="2024-06-02T02:21:06.768Z" agent="Mozilla/5.0 (Windows NT 10.0; Win64; x64) AppleWebKit/537.36 (KHTML, like Gecko) Chrome/125.0.0.0 Safari/537.36 Edg/125.0.0.0" etag="cE5aJ-lvN_RW5VatJSqj" version="24.4.13" type="github">
  <diagram name="Page-1" id="Sh3trvZKgv8NQgv49e1T">
    <mxGraphModel dx="832" dy="0" grid="1" gridSize="10" guides="1" tooltips="1" connect="1" arrows="1" fold="1" page="1" pageScale="1" pageWidth="850" pageHeight="1100" math="0" shadow="0">
      <root>
        <mxCell id="0" />
        <mxCell id="1" parent="0" />
      </root>
    </mxGraphModel>
  </diagram>
</mxfile>
